<svg width="24" height="24" viewBox="0 0 24 24" fill="none" xmlns="http://www.w3.org/2000/svg">
  <path fill-rule="evenodd" clip-rule="evenodd" d="M21.25 12C21.25 5.063 18.937 2.75 12 2.75C5.063 2.75 2.75 5.063 2.75 12C2.75 18.937 5.063 21.25 12 21.25C18.937 21.25 21.25 18.937 21.25 12Z" fill="white" stroke="black" stroke-width="1.5" stroke-linecap="round" stroke-linejoin="round"/>
  <path fill-rule="evenodd" clip-rule="evenodd" d="M7.41667 10.332V16.9987V10.332Z" fill="white"/>
  <path d="M7.41667 10.332V16.9987" stroke="white" stroke-width="1.5" stroke-linecap="round" stroke-linejoin="round"/>
  <path fill-rule="evenodd" clip-rule="evenodd" d="M12.0001 7V17V7Z" fill="white"/>
  <path d="M12.0001 7V17" stroke="white" stroke-width="1.5" stroke-linecap="round" stroke-linejoin="round"/>
  <path fill-rule="evenodd" clip-rule="evenodd" d="M16.5832 13.668V17.0013V13.668Z" fill="white"/>
  <path d="M16.5832 13.668V17.0013" stroke="white" stroke-width="1.5" stroke-linecap="round" stroke-linejoin="round"/>
  <path d="M22 12C22 8.4899 21.4245 5.91107 19.7567 4.2433C18.0889 2.57552 15.5101 2 12 2C8.4899 2 5.91107 2.57552 4.2433 4.2433C2.57552 5.91107 2 8.4899 2 12C2 15.5101 2.57552 18.0889 4.2433 19.7567C5.91107 21.4245 8.4899 22 12 22C15.5101 22 18.0889 21.4245 19.7567 19.7567C21.4245 18.0889 22 15.5101 22 12Z" fill="white" stroke="black" stroke-width="1.5" stroke-linecap="round" stroke-linejoin="round"/>
  <path fill-rule="evenodd" clip-rule="evenodd" d="M7.41667 10.332V16.9987V10.332Z" fill="white"/>
  <path d="M7.41667 10.332V16.9987" stroke="white" stroke-width="1.5" stroke-linecap="round" stroke-linejoin="round"/>
  <path fill-rule="evenodd" clip-rule="evenodd" d="M12.0001 7V17V7Z" fill="white"/>
  <path d="M12.0001 7V17" stroke="white" stroke-width="1.5" stroke-linecap="round" stroke-linejoin="round"/>
  <path fill-rule="evenodd" clip-rule="evenodd" d="M16.5832 13.668V17.0013V13.668Z" fill="white"/>
  <path d="M16.5832 13.668V17.0013" stroke="white" stroke-width="1.5" stroke-linecap="round" stroke-linejoin="round"/>
</svg>
